<svg width="345" height="46" viewBox="0 0 345 46" fill="none" xmlns="http://www.w3.org/2000/svg">
<path d="M46.568 17.84L34.472 42.288H28.52L16.488 17.84V46H0.296V43.248H6.504V1.264H20.008L31.528 25.84L43.112 1.264H56.552V43.248H62.76V46H46.568V17.84ZM101.615 43.248V46H62.0625V43.248H76.8465V28.336L61.3585 1.264H72.1745L81.8385 17.904L91.5025 1.264H102.319L86.8305 28.336V43.248H101.615ZM118.521 43.248V46H101.625V43.248H118.521ZM159.332 43.248V46H118.5V43.248H127.204C124.857 42.0533 122.724 40.5173 120.804 38.64L126.756 31.344C131.577 35.568 136.036 37.68 140.132 37.68C141.967 37.68 143.396 37.296 144.42 36.528C145.487 35.7173 146.02 34.6507 146.02 33.328C146.02 31.9627 145.465 30.896 144.356 30.128C143.247 29.3173 141.049 28.5067 137.764 27.696C132.559 26.4587 128.74 24.8587 126.308 22.896C123.919 20.8907 122.724 17.776 122.724 13.552C122.724 9.28533 124.239 6 127.268 3.696C130.34 1.392 134.159 0.239998 138.724 0.239998C141.711 0.239998 144.697 0.751998 147.684 1.776C150.671 2.8 153.273 4.25066 155.492 6.128L150.436 13.424C146.553 10.48 142.543 9.008 138.404 9.008C136.74 9.008 135.417 9.41333 134.436 10.224C133.497 10.992 133.028 12.0373 133.028 13.36C133.028 14.64 133.604 15.664 134.756 16.432C135.951 17.2 138.66 18.1173 142.884 19.184C147.151 20.208 150.457 21.7653 152.804 23.856C155.151 25.9467 156.324 28.848 156.324 32.56C156.324 37.168 154.596 40.7307 151.14 43.248H159.332ZM212.177 43.248V46H159.312V43.248H173.585C170.086 41.2427 167.313 38.4907 165.265 34.992C163.259 31.4933 162.257 27.6107 162.257 23.344C162.257 16.7733 164.518 11.2907 169.041 6.896C173.563 2.45867 179.131 0.239998 185.745 0.239998C192.358 0.239998 197.926 2.45867 202.449 6.896C206.971 11.2907 209.233 16.7733 209.233 23.344C209.233 27.6107 208.209 31.4933 206.161 34.992C204.113 38.4907 201.361 41.2427 197.905 43.248H212.177ZM199.057 23.408C199.057 19.3973 197.777 15.984 195.217 13.168C192.657 10.352 189.499 8.944 185.745 8.944C182.033 8.944 178.897 10.352 176.337 13.168C173.777 15.984 172.497 19.3973 172.497 23.408C172.497 27.376 173.777 30.768 176.337 33.584C178.897 36.3573 182.033 37.744 185.745 37.744C189.499 37.744 192.657 36.3573 195.217 33.584C197.777 30.768 199.057 27.376 199.057 23.408ZM252.956 43.248V46H211.483V43.248H217.692V1.264H227.676V37.104H246.748V43.248H252.956ZM302.771 43.248V46H285.939L281.779 36.336H263.027L258.867 46H242.034V43.248H249.395L267.571 1.264H277.235L295.347 43.248H302.771ZM272.435 14.576L266.803 27.568H278.003L272.435 14.576ZM301.754 43.248V1.264H318.714C325.669 1.264 330.618 2.43733 333.562 4.784C336.549 7.13066 338.042 10.9067 338.042 16.112C338.042 23.28 335.205 27.9093 329.53 30L338.874 43.248H344.89V46H328.57L318.65 31.728H311.738V46H295.546V43.248H301.754ZM319.034 23.088C322.447 23.088 324.773 22.5333 326.01 21.424C327.247 20.3147 327.866 18.5653 327.866 16.176C327.866 13.744 327.226 12.08 325.946 11.184C324.666 10.288 322.426 9.84 319.226 9.84H311.738V23.088H319.034Z" fill="black"/>
</svg>
